# xmcd CD database file
#
# Track frame offsets:
#	150
#	34543
#	65227
#	96969
#	127094
#	165311
#	198919
#	226288
#
# Disc length: 3345 seconds
#
# Revision: 0
# Processed by: cddbd v1.5.2PL0 Copyright (c) Steve Scherf et al.
# Submitted via: CDex 1.77
#
DISCID=670d0f08
DTITLE=Christian McBride and Inside Straight - People Music
DYEAR=2013
DGENRE=Jazz
TTITLE0=Listen to the Heroes Cry
TTITLE1=Fair Hope Theme
TTITLE2=Gang Gang
TTITLE3=Ms. Angelou
TTITLE4=The Movement Revisited
TTITLE5=Unusual Suspects
TTITLE6=Dream Train
TTITLE7=New Hope's Angel
EXTD=YEAR: 2013
EXTT0=
EXTT1=
EXTT2=
EXTT3=
EXTT4=
EXTT5=
EXTT6=
EXTT7=
PLAYORDER=
